<svg xmlns="http://www.w3.org/2000/svg" version="1.1" xmlns:xlink="http://www.w3.org/1999/xlink" width="512" height="512" x="0" y="0" viewBox="0 0 2010 2010" style="enable-background:new 0 0 512 512" xml:space="preserve" class=""><g><path d="M839.35 1024.01v245.56l81.46-.2h.13c.56 0 1.12.02 1.68.04 2.64-.43 5.35-.67 8.11-.67h159.86c1.68 0 3.34.09 4.98.25h.24l86.16-.18v-244.8l-171.31-112.47z" fill="#000000" opacity="1" data-original="#000000" class=""></path><path d="M1628.92 527.03H805.11l-29.83-72.29c-12.2-29.57-32.71-54.61-59.29-72.4-26.59-17.79-57.55-27.2-89.55-27.2H381.08c-88.78 0-161.01 72.23-161.01 161.01v977.69c0 88.78 72.23 161.01 161.01 161.01h1247.84c88.78 0 161.01-72.23 161.01-161.01v-805.8c0-88.78-72.23-161.01-161.01-161.01zm-268.12 554.58c-9.6 14.62-25.56 22.56-41.84 22.56-9.42 0-18.94-2.66-27.4-8.21l-9.6-6.3v229.04c0 27.57-22.32 49.94-49.9 50l-136.06.28h-.1c-1.69 0-3.35-.09-5-.25H930.72c-.56 0-1.11-.02-1.67-.04-2.61.43-5.28.66-8 .67l-131.58.33h-.12c-13.24 0-25.94-5.25-35.31-14.6a50.022 50.022 0 0 1-14.69-35.4v-230.03l-9.59 6.3c-23.08 15.16-54.08 8.73-69.24-14.35s-8.73-54.08 14.35-69.24l308.34-202.45a49.986 49.986 0 0 1 54.88 0l308.34 202.45c23.08 15.16 29.51 46.16 14.35 69.24z" fill="#000000" opacity="1" data-original="#000000" class=""></path></g></svg>