<svg xmlns="http://www.w3.org/2000/svg" version="1.1" xmlns:xlink="http://www.w3.org/1999/xlink" width="24" height="24" x="0" y="0" viewBox="0 0 512 512" style="enable-background:new 0 0 512 512" xml:space="preserve" class=""><g><path d="M512 107.275c-23.658-33.787-70.696-42.691-104.489-19.033L233.753 209.907l-63.183-44.246c23.526-40.618 12.46-93.179-26.71-120.603-41.364-28.954-98.355-18.906-127.321 22.45-28.953 41.358-18.913 98.361 22.452 127.327 28.384 19.874 64.137 21.364 93.129 6.982l77.388 54.185-77.381 54.179c-28.992-14.375-64.743-12.885-93.129 6.982-41.363 28.966-51.404 85.963-22.452 127.32 28.966 41.363 85.963 51.411 127.32 22.457 39.165-27.424 50.229-79.985 26.71-120.603l63.183-44.246L407.51 423.749c33.793 23.665 80.831 14.755 104.489-19.033l-212.41-148.715L512 107.275zM91.627 167.539c-26.173 0-47.392-21.219-47.392-47.392s21.22-47.392 47.392-47.392c26.179 0 47.392 21.219 47.392 47.392s-21.213 47.392-47.392 47.392zm0 271.714c-26.173 0-47.392-21.219-47.392-47.392 0-26.173 21.219-47.392 47.392-47.392 26.179 0 47.392 21.219 47.392 47.392 0 26.172-21.213 47.392-47.392 47.392z" fill="#000000" opacity="1" data-original="#000000" class=""></path></g></svg>