<svg xmlns="http://www.w3.org/2000/svg" version="1.1" xmlns:xlink="http://www.w3.org/1999/xlink" width="512" height="512" x="0" y="0" viewBox="0 0 16 16" style="enable-background:new 0 0 512 512" xml:space="preserve" class=""><g><path d="M14 3H8l-.72-1.45a1.003 1.003 0 0 0-.9-.55H2a1.003 1.003 0 0 0-1 1v10a1.003 1.003 0 0 0 1 1h5.823a3.746 3.746 0 0 1-.323-1.5A3.987 3.987 0 0 1 15 9.6V4a1.003 1.003 0 0 0-1-1z" fill="#000000" opacity="1" data-original="#000000" class=""></path><path d="M13.621 13.621A3 3 0 0 0 9.38 9.38a2.703 2.703 0 0 0-.686 1.11 2.99 2.99 0 0 0 4.928 3.132zm-3.535-.707a.5.5 0 0 1 0-.707l.707-.707-.707-.707a.5.5 0 0 1 .707-.707l.707.707.707-.707a.5.5 0 0 1 .707.707l-.707.707.707.707a.5.5 0 0 1-.707.707l-.707-.707-.707.707a.5.5 0 0 1-.707 0z" fill="#000000" opacity="1" data-original="#000000" class=""></path></g></svg>