<svg xmlns="http://www.w3.org/2000/svg" version="1.1" xmlns:xlink="http://www.w3.org/1999/xlink" width="512" height="512" x="0" y="0" viewBox="0 0 32 32" style="enable-background:new 0 0 512 512" xml:space="preserve" class=""><g><path d="M17 25a7.99 7.99 0 0 1 12.76-6.42l1.2-7.77a3.582 3.582 0 0 0-.78-2.84A2.688 2.688 0 0 0 29 7.158V7a2.931 2.931 0 0 0-2.85-3H13.97a.757.757 0 0 1-.57-.272l-1.7-1.815A2.744 2.744 0 0 0 9.67 1H3.85A2.931 2.931 0 0 0 1 4v19.82A3.032 3.032 0 0 0 3.85 27h13.41a7.3 7.3 0 0 1-.26-2ZM3.85 3h5.82a.778.778 0 0 1 .569.272l1.686 1.805A2.752 2.752 0 0 0 13.97 6h12.18A.947.947 0 0 1 27 7H6.037A2.967 2.967 0 0 0 3.29 9.69L3 11.58V4a.947.947 0 0 1 .85-1Z" fill="#000000" opacity="1" data-original="#000000" class=""></path><path d="m29.046 20.574-.02-.019-.033-.034A6 6 0 0 0 19 25a5.713 5.713 0 0 0 .119 1.2 6 6 0 1 0 9.97-5.579c-.013-.021-.029-.032-.043-.047ZM27 26h-1v1a1 1 0 0 1-2 0v-1h-1a1 1 0 0 1 0-2h1v-1a1 1 0 0 1 2 0v1h1a1 1 0 0 1 0 2Z" fill="#000000" opacity="1" data-original="#000000" class=""></path></g></svg>