<svg xmlns="http://www.w3.org/2000/svg" version="1.1" xmlns:xlink="http://www.w3.org/1999/xlink" width="512" height="512" x="0" y="0" viewBox="0 0 24 24" style="enable-background:new 0 0 512 512" xml:space="preserve" class=""><g><path d="M11.17 7.25c.08.05.17.1.26.14.09.03.18.06.28.08a1.5 1.5 0 0 0 1.76-1.76c-.02-.1-.05-.19-.08-.28-.04-.09-.09-.18-.14-.26-.06-.08-.12-.16-.19-.23-.34-.35-.87-.51-1.35-.41-.1.02-.19.05-.28.09a1.268 1.268 0 0 0-.49.32c-.07.07-.13.15-.19.23-.05.08-.1.17-.14.26-.03.09-.06.18-.08.28a1.498 1.498 0 0 0 .64 1.54zM10.94 10.94a1.496 1.496 0 0 0 0 2.12 1.498 1.498 0 1 0 2.12-2.12c-.55-.56-1.57-.56-2.12 0zM10.94 16.94c-.28.28-.44.67-.44 1.06 0 .1.01.2.03.29.02.1.05.19.08.28.04.09.09.18.14.26a1.498 1.498 0 1 0 2.31-1.89c-.56-.56-1.56-.56-2.12 0z" fill="#000000" opacity="1" data-original="#000000"></path></g></svg>