<svg xmlns="http://www.w3.org/2000/svg" version="1.1" xmlns:xlink="http://www.w3.org/1999/xlink" width="24" height="24" x="0" y="0" viewBox="0 0 512.001 512.001" style="enable-background:new 0 0 512 512" xml:space="preserve" class=""><g><path d="M481 371c11.046 0 20-8.954 20-20v-92c0-33.084-26.916-60-60-60h-39v-79c0-44.112-35.888-80-80-80h-47.533a57.938 57.938 0 0 0-55.16-40h-25.614a57.938 57.938 0 0 0-55.16 40H91c-44.112 0-80 35.888-80 80v312c0 44.112 35.888 80 80 80h88c11.046 0 20-8.954 20-20s-8.954-20-20-20H91c-22.056 0-40-17.944-40-40V120c0-22.056 17.944-40 40-40h2v59c0 11.046 8.954 20 20 20h189c11.046 0 20-8.954 20-20V80c22.056 0 40 17.944 40 40v79h-65.007C263.914 199 237 225.913 237 258.993v193.015c0 33.08 26.916 59.993 60.01 59.993l143.99-.075c33.084 0 60-26.913 60-59.992 0-11.046-8.954-20-20-20s-20 8.954-20 20c0 11.024-8.972 19.992-20.01 19.992L297 472c-11.028 0-20-8.969-20-19.993V258.993c0-11.024 8.969-19.993 19.993-19.993H441c11.028 0 20 8.972 20 20v92c0 11.046 8.955 20 20 20zM282 119H133V80h21a20 20 0 0 0 19.403-15.149l2.798-11.194A18.004 18.004 0 0 1 193.693 40h25.614a18.005 18.005 0 0 1 17.492 13.657l2.798 11.194A20 20 0 0 0 259 80h23v39z" fill="#000000" opacity="1" data-original="#000000" class=""></path><path d="M401 279h-64c-11.046 0-20 8.954-20 20s8.954 20 20 20h64c11.046 0 20-8.954 20-20s-8.953-20-20-20zM401 349h-64c-11.046 0-20 8.954-20 20s8.954 20 20 20h64c11.046 0 20-8.954 20-20s-8.953-20-20-20z" fill="#000000" opacity="1" data-original="#000000" class=""></path></g></svg>