<svg xmlns="http://www.w3.org/2000/svg" version="1.1" xmlns:xlink="http://www.w3.org/1999/xlink" width="26" height="26" x="0" y="0" viewBox="0 0 64 64" style="enable-background:new 0 0 512 512" xml:space="preserve" class=""><g><path d="M3 45v1a3 3 0 0 0 3 3h31.527a13.962 13.962 0 0 1-1.937-4zM35 41a13.981 13.981 0 0 1 18-13.41V20a3 3 0 0 0-3-3H30.605a7.72 7.72 0 0 1-6.437-3.445A5.724 5.724 0 0 0 19.4 11H6a3 3 0 0 0-3 3v29h32.16a13.884 13.884 0 0 1-.16-2zM7 36a1 1 0 0 1-2 0v-2a1 1 0 0 1 2 0zm0-6a1 1 0 0 1-2 0V20a1 1 0 0 1 2 0zM43.795 46.205l1.426-.57-.856-.856z" fill="#000000" opacity="1" data-original="#000000" class=""></path><path d="M49 29a12 12 0 1 0 12 12 12.013 12.013 0 0 0-12-12zm-1.293 17.707a1.01 1.01 0 0 1-.336.222l-5 2a1 1 0 0 1-1.3-1.3l2-5a1.01 1.01 0 0 1 .222-.336l10-10a1 1 0 0 1 1.414 0l3 3a1 1 0 0 1 0 1.414z" fill="#000000" opacity="1" data-original="#000000" class=""></path><path d="m45.405 43 8.585-8.584 1.585 1.586-8.584 8.584z" fill="#000000" opacity="1" data-original="#000000" class=""></path></g></svg>