<svg xmlns="http://www.w3.org/2000/svg" version="1.1" xmlns:xlink="http://www.w3.org/1999/xlink" width="512" height="512" x="0" y="0" viewBox="0 0 60 60" style="enable-background:new 0 0 512 512" xml:space="preserve" class=""><g><path d="m24.366 54.039 15.062-15.062 2.353 2.354L26.72 56.392zM15 48.629v9.112a.253.253 0 0 0 .259.259h9.112a1.792 1.792 0 0 0 .892-.241L15.241 47.737a1.792 1.792 0 0 0-.241.892zM16.599 46.27 31.66 31.208l2.353 2.354-15.061 15.061zM56 7H27.811a6.01 6.01 0 0 1-3.842-1.391l-3.218-2.681A4 4 0 0 0 18.189 2H4a2 2 0 0 0-2 2v10.556A3.959 3.959 0 0 1 4 14h1v-1a4 4 0 0 1 4-4h42a4 4 0 0 1 4 4v1h1a3.959 3.959 0 0 1 2 .556V9a2 2 0 0 0-2-2zM20.366 50.039l15.062-15.062 2.585 2.585-15.062 15.062zM33.077 29.795l1.881-1.88 10.121 10.12-1.881 1.881zM48.262 34.86A2.5 2.5 0 0 0 49 33.082a2.467 2.467 0 0 0-.735-1.757l-6.587-6.587a2.47 2.47 0 0 0-1.76-.738h-.005a2.492 2.492 0 0 0-1.773.738L36.379 26.5 46.5 36.621z" fill="#000000" opacity="1" data-original="#000000" class=""></path><path d="M51 11H9a2 2 0 0 0-2 2v1h46v-1a2 2 0 0 0-2-2zM4 52h9v-3.371a3.777 3.777 0 0 1 1.108-2.688l22.618-22.617A4.478 4.478 0 0 1 39.913 22h.01a4.454 4.454 0 0 1 3.177 1.327l6.581 6.581a4.488 4.488 0 0 1 0 6.366L33.95 52H56a2 2 0 0 0 2-2V18a2 2 0 0 0-2-2H4a2 2 0 0 0-2 2v32a2 2 0 0 0 2 2z" fill="#000000" opacity="1" data-original="#000000" class=""></path></g></svg>