<svg xmlns="http://www.w3.org/2000/svg" version="1.1" xmlns:xlink="http://www.w3.org/1999/xlink" width="512" height="512" x="0" y="0" viewBox="0 0 34 34" style="enable-background:new 0 0 512 512" xml:space="preserve" class=""><g><path d="M33 9.497v13c0 2.48-2.02 4.5-4.5 4.5h-.25L27 25.747c.97-1.57 1.5-3.39 1.5-5.25 0-2.68-1.04-5.19-2.93-7.07-1.89-1.89-4.4-2.93-7.07-2.93s-5.18 1.04-7.07 2.93a9.898 9.898 0 0 0-2.93 7.07c0 2.42.85 4.71 2.4 6.5H5.5c-2.48 0-4.5-2.02-4.5-4.5v-17c0-2.48 2.02-4.5 4.5-4.5h5.95c1 0 2 .35 2.8.99l3.37 2.69c.26.21.59.32.93.32h9.95c2.48 0 4.5 2.02 4.5 4.5z" fill="#000000" opacity="1" data-original="#000000" class=""></path><path d="m29.572 30.443-4.531-4.531a8.426 8.426 0 0 0 1.957-5.42 8.438 8.438 0 0 0-2.487-6.006c-1.608-1.608-3.743-2.494-6.011-2.494s-4.402.886-6.01 2.494a8.436 8.436 0 0 0-2.487 6.006c0 2.269.884 4.401 2.462 5.979.037.039.084.083.135.126a8.468 8.468 0 0 0 5.905 2.395 8.421 8.421 0 0 0 4.232-1.142l4.715 4.715a1.497 1.497 0 0 0 2.121 0 1.501 1.501 0 0 0-.001-2.122zM14.66 24.416a1.307 1.307 0 0 0-.088-.079 5.451 5.451 0 0 1-1.569-3.845c0-1.468.571-2.848 1.608-3.885 1.042-1.042 2.423-1.615 3.889-1.615s2.848.573 3.89 1.615a5.458 5.458 0 0 1 1.608 3.885 5.457 5.457 0 0 1-1.569 3.845 1.909 1.909 0 0 0-.096.086 4.52 4.52 0 0 1-.364.324 5.47 5.47 0 0 1-7.309-.331z" fill="#000000" opacity="1" data-original="#000000" class=""></path></g></svg>