<svg xmlns="http://www.w3.org/2000/svg" version="1.1" xmlns:xlink="http://www.w3.org/1999/xlink" width="24" height="24" x="0" y="0" viewBox="0 0 548.25 548.25" style="enable-background:new 0 0 512 512" xml:space="preserve" class=""><g><path fill-rule="evenodd" d="M341.292 17.672s19.099 55.412 19.099 55.386a217.387 217.387 0 0 1 44.702 25.831l57.553-11.169c6.681-1.3 13.566 1.071 18.054 6.197a274.353 274.353 0 0 1 52.76 91.417 19.13 19.13 0 0 1-3.647 18.742s-38.428 44.242-38.428 44.217a218.606 218.606 0 0 1 0 51.637l38.428 44.242a19.13 19.13 0 0 1 3.647 18.742 274.343 274.343 0 0 1-52.76 91.417c-4.488 5.126-11.373 7.497-18.054 6.197 0 0-57.553-11.169-57.528-11.169a217.595 217.595 0 0 1-44.727 25.806l-19.099 55.411a19.142 19.142 0 0 1-14.382 12.546 274.366 274.366 0 0 1-105.57 0 19.142 19.142 0 0 1-14.382-12.546s-19.099-55.411-19.099-55.386a217.346 217.346 0 0 1-44.702-25.832L85.604 460.53c-6.681 1.301-13.566-1.071-18.054-6.197a274.347 274.347 0 0 1-52.76-91.418 19.13 19.13 0 0 1 3.646-18.742s38.429-44.242 38.429-44.217a218.615 218.615 0 0 1 0-51.638l-38.428-44.242a19.133 19.133 0 0 1-3.647-18.742 274.372 274.372 0 0 1 52.759-91.418c4.488-5.126 11.373-7.497 18.054-6.196 0 0 57.553 11.169 57.528 11.169a217.62 217.62 0 0 1 44.727-25.806l19.099-55.411a19.142 19.142 0 0 1 14.382-12.546 274.366 274.366 0 0 1 105.57 0 19.14 19.14 0 0 1 14.383 12.546zM274.125 161.39c-62.22 0-112.736 50.515-112.736 112.736s50.515 112.735 112.736 112.735S386.86 336.345 386.86 274.125 336.345 161.39 274.125 161.39zm0 38.25c41.106 0 74.485 33.38 74.485 74.485s-33.379 74.485-74.485 74.485-74.485-33.379-74.485-74.485 33.379-74.485 74.485-74.485z" clip-rule="evenodd" fill="#000000" opacity="1" data-original="#000000" class=""></path></g></svg>