<svg xmlns="http://www.w3.org/2000/svg" version="1.1" xmlns:xlink="http://www.w3.org/1999/xlink" width="512" height="512" x="0" y="0" viewBox="0 0 426 426.667" style="enable-background:new 0 0 512 512" xml:space="preserve" class=""><g><path d="M347.02 394.668h-47.875l61.953-115.094a15.967 15.967 0 0 0-.364-15.789c-2.859-4.82-8.086-7.785-13.714-7.785h-74.668c-8.832 0-16 7.168-16 16s7.168 16 16 16h47.87L258.27 403.094a15.979 15.979 0 0 0 .363 15.785c2.86 4.824 8.086 7.789 13.719 7.789h74.668c8.832 0 16-7.168 16-16s-7.168-16-16-16zM309.684 0c-29.418 0-53.332 23.914-53.332 53.332v101.336c0 8.832 7.168 16 16 16s16-7.168 16-16V112h42.668v42.668c0 8.832 7.168 16 16 16s16-7.168 16-16V53.332C363.02 23.914 339.102 0 309.684 0zm-21.332 80V53.332c0-11.773 9.558-21.332 21.332-21.332 11.777 0 21.336 9.559 21.336 21.332V80zM155.02 320h-48V21.332C107.02 9.535 97.48 0 85.684 0S64.352 9.535 64.352 21.332V320h-48c-6.36 0-12.118 3.777-14.676 9.602-2.563 5.824-1.387 12.628 2.941 17.3l69.336 74.664c3.05 3.247 7.274 5.102 11.73 5.102 4.462 0 8.684-1.855 11.735-5.102l69.332-74.664a16.036 16.036 0 0 0 2.945-17.3c-2.539-5.848-8.32-9.602-14.675-9.602zm0 0" fill="#000000" opacity="1" data-original="#000000" class=""></path></g></svg>