<svg xmlns="http://www.w3.org/2000/svg" version="1.1" xmlns:xlink="http://www.w3.org/1999/xlink" width="512" height="512" x="0" y="0" viewBox="0 0 24 24" style="enable-background:new 0 0 512 512" xml:space="preserve" class=""><g><g fill="#000"><path d="M5.059 1c1.509 0 2.843.962 3.32 2.391l.088.267a.5.5 0 0 0 .475.344L20.5 4c.266 0 .543.04.874.126a.495.495 0 0 0 .432-.088.5.5 0 0 0 .194-.396V2.5C22 1.122 20.879 0 19.5 0H5.059a.5.5 0 0 0 0 1z" fill="#000000" opacity="1" data-original="#000000" class=""></path><path d="M20.5 5H8.941a1.497 1.497 0 0 1-1.422-1.025l-.088-.266A2.5 2.5 0 0 0 5.059 2H2.5A2.503 2.503 0 0 0 0 4.5v12C0 17.878 1.121 19 2.5 19h2a.5.5 0 0 0 .5-.5c0-3.584 2.916-6.5 6.5-6.5s6.5 2.916 6.5 6.5a.5.5 0 0 0 .5.5h2c1.379 0 2.5-1.122 2.5-2.5v-9C23 6.122 21.879 5 20.5 5z" fill="#000000" opacity="1" data-original="#000000" class=""></path><path d="M11.5 13C8.468 13 6 15.467 6 18.5S8.468 24 11.5 24s5.5-2.467 5.5-5.5-2.468-5.5-5.5-5.5zm.359 8.85c-.099.1-.229.15-.359.15s-.26-.05-.351-.15a.5.5 0 0 1-.009-.7c.2-.19.53-.19.71 0 .09.09.15.22.15.35s-.05.25-.141.35zM12 19.5a.5.5 0 0 1-1 0v-4a.5.5 0 0 1 1 0z" fill="#000000" opacity="1" data-original="#000000" class=""></path></g></g></svg>