<svg xmlns="http://www.w3.org/2000/svg" version="1.1" xmlns:xlink="http://www.w3.org/1999/xlink" width="24" height="24" x="0" y="0" viewBox="0 0 1130 1130" style="enable-background:new 0 0 512 512" xml:space="preserve" fill-rule="evenodd" class=""><g><path d="M1120.15 353.856c0-27.623-10.981-54.107-30.506-73.658a104.137 104.137 0 0 0-73.669-30.517H595.383a34.69 34.69 0 0 1-25.724-11.419l-.017-.018c-19.645-21.679-49.013-54.138-68.646-75.832a104.22 104.22 0 0 0-77.225-34.26H113.196a104.218 104.218 0 0 0-73.654 30.49l-.032.031a104.202 104.202 0 0 0-30.485 73.654V896.84a104.148 104.148 0 0 0 30.501 73.657l.016.016a104.233 104.233 0 0 0 73.654 30.502h902.779c27.634 0 54.12-10.985 73.653-30.518a104.177 104.177 0 0 0 30.522-73.657zm-69.459 0 .001 542.984a34.711 34.711 0 0 1-10.179 24.542 34.701 34.701 0 0 1-24.538 10.174H113.196a34.774 34.774 0 0 1-24.563-10.182 34.695 34.695 0 0 1-10.15-24.534V232.327a34.764 34.764 0 0 1 10.157-24.555 34.773 34.773 0 0 1 24.556-10.162h310.575a34.726 34.726 0 0 1 25.73 11.414c19.642 21.705 49.02 54.175 68.673 75.862a104.133 104.133 0 0 0 77.209 34.254h420.592a34.691 34.691 0 0 1 24.531 10.149 34.785 34.785 0 0 1 10.185 24.567zM529.858 593.64h-86.8c-19.167 0-34.729 15.561-34.729 34.729 0 19.167 15.562 34.729 34.729 34.729h86.8v86.8c0 19.167 15.562 34.729 34.729 34.729 19.168 0 34.729-15.562 34.73-34.729v-86.8h86.795c19.168 0 34.73-15.562 34.73-34.729-.001-19.168-15.562-34.729-34.73-34.729h-86.795v-86.8c-.001-19.168-15.562-34.73-34.73-34.73-19.167 0-34.729 15.562-34.729 34.73z" fill="#000000" opacity="1" data-original="#000000" class=""></path></g></svg>